<?xml version="1.0" encoding="UTF-8" standalone="no"?>
<!-- Created with Inkscape (http://www.inkscape.org/) -->

<svg
   version="1.1"
   id="svg1"
   width="197.25249"
   height="304.85266"
   viewBox="0 0 197.25248 304.85266"
   sodipodi:docname="profil.png"
   xmlns:inkscape="http://www.inkscape.org/namespaces/inkscape"
   xmlns:sodipodi="http://sodipodi.sourceforge.net/DTD/sodipodi-0.dtd"
   xmlns="http://www.w3.org/2000/svg"
   xmlns:svg="http://www.w3.org/2000/svg">
  <defs
     id="defs1" />
  <sodipodi:namedview
     id="namedview1"
     pagecolor="#ffffff"
     bordercolor="#000000"
     borderopacity="0.25"
     inkscape:showpageshadow="2"
     inkscape:pageopacity="0.0"
     inkscape:pagecheckerboard="true"
     inkscape:deskcolor="#d1d1d1" />
  <g
     inkscape:groupmode="layer"
     inkscape:label="Image"
     id="g1"
     transform="translate(-1.1816743,-1.0610338)">
    <path
       style="fill:#000000"
       d="m 18.239036,305.17803 c -1.57099,-1.29213 -4.74878,-6.86307 -6.59,-11.55282 -2.0488699,-5.21867 -2.8726899,-13.67812 -1.6830696,-17.28272 0.5116296,-1.55025 2.4347796,-3.88098 5.6870596,-6.89235 l 4.91402,-4.55002 -2.22928,-1.70105 c -5.84331,-4.45873 -8.33072,-8.5974 -8.33072,-13.86104 0,-6.45739 3.51717,-10.95557 11.35892,-14.52716 l 4.63893,-2.11284 -3.16135,-4.74946 c -6.72048,-10.09652 -5.50237,-16.35054 4.75466,-24.41122 2.29286,-1.80189 4.16884,-3.55681 4.16884,-3.89982 0,-1.08669 -1.39667,-3.31126 -4.35688,-6.9395 -1.57954,-1.936 -3.39909,-4.672 -4.04345,-6.08 -1.51488,-3.31019 -1.5314,-8.3587 -0.0369,-11.29001 l 1.16274,-2.28065 -2.29449,-1.92634 c -1.26197,-1.05949 -3.03953,-3.04609 -3.95013,-4.41467 -4.92949,-7.40876 -6.96086,-10.70108 -6.96086,-11.28175 0,-0.35617 -1.6192096,-4.71535 -3.5982399,-9.68707 -4.49029,-11.28055 -5.93559,-17.99814 -6.42002,-29.83951 C 0.26236604,91.296062 8.0229561,63.994446 22.007986,42.938028 33.588566,25.501845 53.029296,10.523587 72.087077,4.3542221 c 8.13586,-2.633733 13.14281,-3.339104 23.36,-3.290914 8.207573,0.03871 10.148293,0.247576 13.380193,1.44 2.91822,1.076691 5.19336,1.394721 9.97762,1.394721 10.46172,0 20.7756,3.534883 31.79956,10.8986789 24.11924,16.111189 39.37359,39.249171 45.3209,68.743262 5.51126,27.33162 1.85896,52.71684 -10.13428,70.43806 -4.7704,7.04874 -15.91897,16.89916 -23.61378,20.86417 -9.63265,4.96355 -25.65845,8.67013 -40.17021,9.29091 -9.85414,0.42153 -10.88,0.77774 -10.88,3.77784 0,1.46747 0.86136,1.92832 11.72017,6.27055 24.52822,9.80835 42.53956,32.94903 49.37819,63.44029 1.98252,8.83943 1.95669,11.46309 -0.11574,11.75779 -1.57624,0.22413 -1.36569,0.79043 -3.36194,-9.04231 -5.99024,-29.50548 -23.48782,-52.66661 -47.16401,-62.42989 -7.49324,-3.08997 -7.7139,-3.08742 -12.53389,0.14473 -6.21189,4.16553 -10.603423,5.66524 -17.629083,6.02035 -4.97177,0.25129 -6.63007,0.0696 -10.11857,-1.10878 l -4.17228,-1.40932 -1.50688,1.62595 c -0.82878,0.89427 -2.32342,1.82142 -3.32142,2.06032 -2.71634,0.65024 -2.77172,0.74786 -1.77606,3.13082 0.50683,1.21301 0.9215,3.76355 0.9215,5.66786 0,6.18713 -2.75435,10.60599 -8.078551,12.96061 -5.46545,2.41708 -5.74212,4.27041 -1.60976,10.78341 1.68448,2.6549 2.007351,3.79009 2.002311,7.04 -0.0101,6.48273 -3.903281,11.74028 -12.313991,16.62924 -1.672,0.9719 -3.04,1.88123 -3.04,2.02073 0,0.13951 0.99633,1.55892 2.21407,3.15425 3.46178,4.53518 4.28671,8.93107 2.79746,14.90707 -0.59193,2.37528 -1.62926,3.87343 -4.96,7.16341 -3.39471,3.35317 -6.13551,5.18238 -14.13153,9.43137 -5.456,2.89925 -10.784,5.84935 -11.84,6.55578 -2.24276,1.50033 -2.92664,1.57967 -4.24801,0.49285 z M 97.667367,199.15352 c 5.312113,-1.65332 11.046183,-5.15349 10.548313,-6.43887 -0.91454,-2.36115 -1.00546,-4.56368 -0.32391,-7.84667 l 0.73073,-3.51995 4.61228,-1.34818 c 2.53674,-0.74149 7.49227,-1.95956 11.01227,-2.70682 9.01832,-1.91448 17.32426,-4.68046 21.44,-7.13977 4.16759,-2.4903 6.55819,-5.8012 9.82715,-13.61032 5.72522,-13.67681 6.67373,-25.65155 2.97742,-37.58962 -1.08195,-3.4944 -1.88936,-4.64842 -6.2239,-8.89574 -2.73937,-2.68425 -7.28467,-6.41249 -10.10067,-8.28497 -6.70036,-4.455378 -16.49875,-14.01324 -21.33274,-20.80908 -3.87171,-5.443033 -9.83399,-16.513992 -11.94801,-22.185501 -0.62324,-1.672 -1.42003,-3.04 -1.77066,-3.04 -2.40086,0 -7.900093,5.061111 -18.261383,16.806497 -7.89007,8.944054 -21.79389,22.248936 -26.694201,25.544276 -3.56872,2.399888 -9.68701,5.009228 -11.74546,5.009228 -1.48072,0 -3.09508,1.79639 -6.80168,7.56859 -5.64727,8.79437 -8.36191,19.30903 -7.91158,30.644 0.2041,5.13705 0.44018,6.04391 2.46571,9.47138 3.15617,5.34069 11.51169,13.6159 17.91999,17.74778 2.992,1.92915 9.976001,5.87488 15.520001,8.7683 l 10.08001,5.26077 -0.004,3.62959 c -0.004,3.68052 -1.23201,7.0359 -2.92095,7.98107 -1.38823,0.7769 -1.09473,2.86691 0.52489,3.73773 4.94349,2.65799 12.25223,3.15355 18.38032,1.24628 z m -5.65601,-44.22656 c -4.36628,-0.91837 -8.40431,-3.10265 -8.40431,-4.54611 0,-1.93591 1.54291,-2.08004 5.57032,-0.52037 3.57632,1.38498 7.04779,1.6357 14.909683,1.07679 1.89347,-0.13461 2.27161,0.0634 2.44437,1.27973 0.151,1.06313 -0.23545,1.60619 -1.47958,2.07921 -2.49351,0.94803 -9.842113,1.30347 -13.040483,0.63075 z M 126.04279,139.2591 c -2.03022,-1.42202 -3.64504,-6.15153 -3.09728,-9.07135 0.93617,-4.99024 4.2597,-8.52171 8.02521,-8.52733 1.94713,-0.003 8.27552,3.81951 8.29929,5.01285 0.009,0.47038 -0.60545,2.9976 -1.36627,5.61603 -1.781,6.12951 -3.48783,7.92873 -7.52156,7.92873 -1.63368,0 -3.5864,-0.43152 -4.33939,-0.95893 z m -62.673634,-5.69019 c -1.09884,-0.49502 -2.46684,-1.56956 -3.04,-2.38786 -2.16541,-3.09156 -0.6788,-11.67747 2.54654,-14.70752 2.372251,-2.22861 5.839711,-2.03734 9.328451,0.51458 3.07989,2.25285 3.19012,2.81764 1.82737,9.36292 -1.34687,6.46899 -5.73331,9.43839 -10.662361,7.21788 z m 75.695054,-15.38276 c -2.06951,-1.8956 -7.13345,-3.80948 -9.2295,-3.48822 -1.28858,0.1975 -2.06766,-0.16853 -2.06766,-0.97143 0,-3.60152 12.35527,-0.26941 14.22612,3.83667 1.24765,2.73827 -0.26772,3.06059 -2.92896,0.62298 z m -63.172183,-9.69032 c -1.46833,-1.76923 -4.59825,-2.99232 -7.87193,-3.07617 -1.90921,-0.0489 -3.29362,-0.40086 -3.45226,-0.87769 -0.40812,-1.22674 2.93359,-2.17821 6.02303,-1.71492 3.4411,0.51603 8.53618,3.76979 8.53618,5.45129 0,1.50287 -2.05367,1.64093 -3.23502,0.21749 z m 64.347663,165.4703 c -0.22159,-0.35855 -0.64887,-4.75055 -0.9495,-9.76 -0.53162,-8.85839 -1.92231,-18.42225 -4.50158,-30.95768 -0.69386,-3.37223 -1.26156,-6.64481 -1.26156,-7.2724 0,-1.27335 1.44547,-2.05994 2.81774,-1.53335 0.82033,0.31479 3.21622,11.28154 5.50875,25.21533 0.85352,5.18762 1.93918,22.86842 1.47799,24.07025 -0.39618,1.03242 -2.50071,1.19432 -3.09184,0.23785 z"
       id="path1" />
  </g>
</svg>
